<?xml version="1.0" encoding="utf-8"?>
<!-- Generator: Adobe Illustrator 16.0.0, SVG Export Plug-In . SVG Version: 6.00 Build 0)  -->
<!DOCTYPE svg PUBLIC "-//W3C//DTD SVG 1.1//EN" "http://www.w3.org/Graphics/SVG/1.1/DTD/svg11.dtd">
<svg version="1.1" id="Layer_1" xmlns="http://www.w3.org/2000/svg" xmlns:xlink="http://www.w3.org/1999/xlink" x="0px" y="0px"
	 width="569.25px" height="142.125px" viewBox="0 0 569.25 142.125" enable-background="new 0 0 569.25 142.125"
	 xml:space="preserve">
<g id="Layer_1_1_" display="none">
	<g display="inline">
		<g>
			<g>
				<path fill="#1B75BB" d="M126.534,91.65c-1.554-7.523-18.919-21.158-18.919-21.158c-6.589-6.587,4.57-27.849-43.892-27.849
					c-48.46,0-35.463,19.425-43.888,27.849c0,0-17.354,13.658-18.896,21.158c-1.752,8.519,3.673,27.377,10.02,30.326
					c1.589,8.121,5.177,19.563,12.778,19.563c5.781,0,7.863-6.624,8.486-13.369c9.341,1.696,20.139,2.688,31.5,2.703
					c11.081,0.016,21.627-0.898,30.809-2.498c0.646,6.674,2.74,13.165,8.468,13.165c7.458,0,11.052-11.013,12.684-19.101
					C122.518,119.412,128.28,100.105,126.534,91.65z M63.724,117.62c-23.002,0-33.549-15.003-31.83-16.604
					c1.724-1.604,9.999,4.998,31.83,4.998c21.833,0,30.34-6.253,31.832-4.998C97.049,102.27,86.728,117.62,63.724,117.62z"/>
				<g>
					<path fill="#D2B431" d="M105.426,42.973l19.622-22.951L98.38,23.258L91.101,1.364L73.715,16.681L52.373,0.643l7.772,32.067
						c3.273-0.081,6.927-0.016,11.012,0.208C90.866,34.004,100.505,38.068,105.426,42.973z"/>
				</g>
			</g>
		</g>
		<g>
			<path fill="#1B75BB" d="M174.02,67.738c-5.877,0-10.628,2.083-14.251,6.249c-3.623,4.164-5.436,10.414-5.436,18.744
				s1.813,14.578,5.436,18.744s8.375,6.248,14.251,6.248c2.839,0,5.63-0.779,8.374-2.342c2.741-1.561,5.144-3.669,7.199-6.333
				l10.577,8.813c-1.273,1.67-2.792,3.315-4.554,4.938c-1.765,1.624-3.771,3.062-6.022,4.313c-2.254,1.252-4.752,2.246-7.493,2.99
				c-2.743,0.739-5.729,1.111-8.963,1.111c-4.701,0-9.06-0.826-13.076-2.479s-7.534-4.084-10.55-7.299
				c-3.019-3.213-5.395-7.207-7.126-11.979c-1.73-4.771-2.596-10.327-2.596-16.661c0-6.335,0.864-11.91,2.596-16.729
				c1.732-4.82,4.155-8.834,7.273-12.05c3.115-3.212,6.806-5.645,11.065-7.296c4.26-1.653,8.938-2.479,14.03-2.479
				c5.973,0,11.26,1.263,15.865,3.786c4.604,2.525,8.081,6.038,10.431,10.534l-11.166,9.501c-1.762-3.58-3.917-6.196-6.463-7.851
				C180.873,68.563,177.74,67.738,174.02,67.738z"/>
			<path fill="#1B75BB" d="M253.756,122.268c-2.353,2.847-5.289,5.049-8.814,6.608s-7.639,2.341-12.341,2.341
				c-3.331,0-6.636-0.505-9.917-1.515c-3.283-1.011-6.221-2.547-8.813-4.613c-2.598-2.065-4.701-4.657-6.317-7.78
				c-1.617-3.119-2.424-6.838-2.424-11.153c0-4.038,0.783-7.55,2.35-10.533c1.567-2.981,3.725-5.438,6.465-7.367
				c2.741-1.928,5.95-3.373,9.623-4.336c3.674-0.964,7.663-1.446,11.975-1.446c4.21,0,7.762,0.574,10.649,1.721
				c2.89,1.148,5.215,2.457,6.979,3.926c0-3.396-0.247-6.404-0.735-9.02c-0.492-2.617-1.349-4.798-2.571-6.541
				c-1.226-1.745-2.938-3.077-5.142-3.996c-2.203-0.916-4.972-1.377-8.3-1.377c-3.919,0-7.493,0.599-10.727,1.791
				c-3.23,1.193-5.778,2.434-7.64,3.719l-6.317-11.155c2.254-1.928,5.606-3.625,10.063-5.094c4.456-1.467,9.769-2.204,15.939-2.204
				c10.087,0,17.458,2.616,22.108,7.848c4.651,5.233,6.979,13.542,6.979,24.925v44.201h-13.075v-8.947h0.002V122.268z
				 M253.169,99.546c-1.667-1.835-4.091-3.327-7.271-4.476c-3.185-1.146-6.687-1.721-10.505-1.721c-5.29,0-9.38,1.031-12.268,3.099
				c-2.893,2.065-4.333,5.301-4.333,9.707c0,4.131,1.469,7.299,4.407,9.502c2.938,2.202,6.902,3.305,11.897,3.305
				c2.057,0,4.04-0.297,5.95-0.896c1.909-0.598,3.672-1.33,5.289-2.203c1.616-0.871,3.012-1.881,4.187-3.029
				c1.175-1.146,2.059-2.271,2.646-3.374V99.546L253.169,99.546z"/>
			<path fill="#1B75BB" d="M288.832,54.101v9.093c1.563-2.844,3.938-5.047,7.124-6.61c3.183-1.561,6.583-2.341,10.212-2.341
				c2.057,0,4.062,0.275,6.021,0.827c1.959,0.55,3.621,1.469,4.997,2.753l-5.289,12.255c-2.843-1.835-5.635-2.754-8.374-2.754
				c-6.169,0-13.958,6.347-13.958,15.219v48.673h-14.544V54.101H288.832z"/>
			<path fill="#1B75BB" d="M335.399,54.101v9.093c1.565-2.844,3.943-5.047,7.125-6.61c3.182-1.561,6.587-2.341,10.211-2.341
				c2.057,0,4.063,0.275,6.021,0.827c1.959,0.55,3.624,1.469,4.997,2.753l-5.288,12.255c-2.845-1.835-5.637-2.754-8.375-2.754
				c-6.17,0-13.958,6.097-13.958,15.219v48.673H321.59V54.101H335.399z"/>
			<path fill="#1B75BB" d="M413.557,58.974c-1.406-0.865-2.9-1.618-4.479-2.251c-4.114-1.653-8.571-2.479-13.37-2.479
				c-4.899,0-9.381,0.827-13.44,2.479c-4.065,1.651-7.566,4.084-10.505,7.296c-2.938,3.215-5.24,7.229-6.905,12.049
				c-1.667,4.82-2.497,10.396-2.497,16.729s0.83,11.89,2.497,16.661c1.665,4.773,3.968,8.768,6.905,11.979
				c2.938,3.215,6.438,5.646,10.505,7.301c4.062,1.65,8.541,2.478,13.44,2.478c4.799,0,9.256-0.825,13.37-2.478
				c4.111-1.653,7.639-4.086,10.575-7.301c2.938-3.213,5.236-7.205,6.903-11.979c1.222-3.497,1.994-7.416,2.319-11.753
				L413.557,58.974z M409.681,111.475c-3.415,4.166-8.05,6.248-13.9,6.248c-5.854,0-10.467-2.082-13.833-6.248
				c-3.361-4.166-5.044-10.414-5.044-18.744s1.683-14.58,5.044-18.744c3.366-4.167,7.979-6.249,13.833-6.249
				c5.853,0,10.485,2.083,13.9,6.249c3.416,4.164,5.122,10.414,5.122,18.744S413.097,107.309,409.681,111.475z"/>
		</g>
		<g>
			<path fill="#D2B431" d="M507.596,54.264v76.953h-5.262V54.264H507.596z"/>
			<path fill="#D2B431" d="M521.023,131.217V54.264c2.859-0.219,8.008-0.33,10.428-0.33c24.846,0,37.268,12.972,37.268,25.724
				c0,12.861-12.422,25.613-37.268,25.613c-1.65,0-3.299-0.108-5.168-0.22v26.164L521.023,131.217L521.023,131.217z M526.281,59.304
				v40.49c1.759,0.11,3.627,0.22,5.168,0.22c22.646,0,32.005-9.143,32.005-20.354s-9.358-20.464-32.005-20.464
				C529.908,59.194,528.152,59.194,526.281,59.304z"/>
			<g>
				<polygon fill="#D2B431" points="507.596,1.521 501.93,1.521 459.111,127.141 432.397,54.243 427.115,54.243 459.111,141.541 
									"/>
			</g>
		</g>
	</g>
</g>
<g>
	<g>
		<g>
			<path fill="#1B75BB" d="M197.642,88.957c-1.524-7.389-18.575-20.773-18.575-20.773c-6.469-6.468,4.489-27.343-43.093-27.343
				c-47.579,0-34.816,19.072-43.088,27.343c0,0-17.038,13.408-18.553,20.773c-1.721,8.363,3.605,26.878,9.835,29.773
				c1.562,7.973,5.083,19.207,12.549,19.207c5.677,0,7.72-6.506,8.331-13.125c9.171,1.664,19.773,2.638,30.927,2.651
				c10.881,0.015,21.234-0.882,30.248-2.45c0.635,6.551,2.693,12.924,8.313,12.924c7.324,0,10.853-10.811,12.457-18.75
				C193.7,116.211,199.356,97.257,197.642,88.957z M135.974,114.455c-22.583,0-32.938-14.73-31.249-16.305
				c1.689-1.574,9.815,4.906,31.249,4.906c21.438,0,29.788-6.139,31.254-4.906C168.692,99.379,158.56,114.455,135.974,114.455z"/>
		</g>
	</g>
	<g>
		<path fill="#1B75BB" d="M259.205,83.463l33.571,44.027H261.12l-17.082-25.473v25.473h-25.474V11l25.474-11v66.677l17.082-25.621
			h31.657L259.205,83.463z"/>
		<path fill="#1B75BB" d="M332.976,66.677c-3.826,0-5.741,2.063-5.741,6.188v54.627h-25.623V61.523c0-2.944,0.489-5.644,1.475-8.098
			c0.979-2.453,2.38-4.588,4.194-6.406c1.816-1.815,3.979-3.24,6.479-4.27c2.504-1.029,5.228-1.545,8.173-1.545H350.5v25.473
			H332.976z"/>
		<path fill="#1B75BB" d="M390.698,66.677c-3.829,0-5.741,2.063-5.741,6.188v54.627h-25.621V61.523c0-2.944,0.49-5.644,1.471-8.098
			c0.979-2.453,2.381-4.588,4.197-6.406c1.815-1.815,3.979-3.24,6.48-4.27c2.5-1.029,5.228-1.545,8.17-1.545h28.565v25.473H390.698z
			"/>
		<path fill="#1B75BB" d="M495.243,107.316c0,13.548-6.577,20.271-19.731,20.174h-37.841c-13.746,0-20.615-6.527-20.615-19.584
			v-46.53c0-13.547,6.723-20.321,20.172-20.321h37.99c13.349,0,20.025,6.824,20.025,20.468V107.316z M463.145,102.018
			c4.513,0,6.771-2.307,6.771-6.92V73.01c0-4.22-2.355-6.333-7.067-6.333h-14.43c-3.929,0-5.892,2.208-5.892,6.628v21.498
			c0,4.812,1.916,7.215,5.744,7.215H463.145z"/>
	</g>
	<g>
		<g>
			<g>
				<path fill="#D2B431" d="M176.517,41.397l19.19-22.445l-26.08,3.165l-7.121-21.413l-17.002,14.982L124.632,0l7.604,31.361
					c3.199-0.077,6.774-0.015,10.766,0.204C162.278,32.627,171.704,36.601,176.517,41.397z"/>
			</g>
		</g>
	</g>
</g>
</svg>
