<?xml version="1.0" encoding="utf-8"?>
<!-- Generator: Adobe Illustrator 16.0.0, SVG Export Plug-In . SVG Version: 6.00 Build 0)  -->
<!DOCTYPE svg PUBLIC "-//W3C//DTD SVG 1.1//EN" "http://www.w3.org/Graphics/SVG/1.1/DTD/svg11.dtd">
<svg version="1.1" id="Layer_1" xmlns="http://www.w3.org/2000/svg" xmlns:xlink="http://www.w3.org/1999/xlink" x="0px" y="0px"
	 width="200px" height="200px" viewBox="0 0 169.579 83.72" enable-background="new 0 0 169.579 83.72" xml:space="preserve">
<g>
	<path fill-rule="evenodd" clip-rule="evenodd" d="M84.791,0C37.963,0,0,18.744,0,41.859C0,64.976,37.963,83.72,84.791,83.72
		c46.825,0,84.788-18.745,84.788-41.861C169.579,18.744,131.616,0,84.791,0L84.791,0z M76.747,9.315
		c9.68-3.421,38.428,0,49.599,5.364c3.574,3.428-15.94,14.442-39.171,19.216C53.959,40.595,69.746,14.976,76.747,9.315L76.747,9.315
		z M19.703,58.914C12.401,53.708-1.896,38.81,21.789,23.32c12.512-7.296,19.511-8.94,28.147-10.725
		c4.172-0.897,7.151,0.148,3.426,3.277c-7.893,8.194-24.277,35.295-25.765,41.256C26.403,61.155,24.021,62.191,19.703,58.914
		L19.703,58.914z M87.917,76.194c-14,1.487-45.127-3.128-45.725-7.146c0.598-9.688,49.449-25.773,58.237-16.835
		C104.152,59.213,97.002,75.748,87.917,76.194L87.917,76.194z M159.112,48.039c-3.576,8.193-15.641,17.432-40.958,23.69
		c-3.875,0.888-5.213-1.493-2.683-3.727c4.172-2.531,24.278-36.189,26.812-42.897c1.488-3.428,4.317-2.083,6.106-0.746
		C156.432,29.571,162.54,38.062,159.112,48.039L159.112,48.039z"/>
</g>
</svg>
