<?xml version="1.0" encoding="utf-8"?>
<!-- Generator: Adobe Illustrator 16.0.0, SVG Export Plug-In . SVG Version: 6.00 Build 0)  -->
<!DOCTYPE svg PUBLIC "-//W3C//DTD SVG 1.1//EN" "http://www.w3.org/Graphics/SVG/1.1/DTD/svg11.dtd">
<svg version="1.1" id="Layer_4" xmlns="http://www.w3.org/2000/svg" xmlns:xlink="http://www.w3.org/1999/xlink" x="0px" y="0px"
	 width="349.257px" height="265.129px" viewBox="0 0 349.257 265.129" enable-background="new 0 0 349.257 265.129"
	 xml:space="preserve">
<g>
	<path d="M174.63,24.564c-33.898,0-68.311,2.871-102.337,8.54c-0.747,21.467-0.747,38.548-0.004,52.136
		c2.265,41.597,11.417,73.828,28.802,101.423c17.381,27.591,43.445,50.385,73.54,64.351c30.091-13.966,56.156-36.76,73.539-64.351
		c17.384-27.596,26.535-59.827,28.802-101.423c0.742-13.588,0.742-30.669-0.005-52.136C242.941,27.435,208.524,24.564,174.63,24.564
		z M216.708,45.66c0-3.327,1.652-4.011,5.382-3.76c3.272,0.226,6.542,0.47,9.815,0.741c3.236,0.266,5.374,1.173,5.374,4.567v6.625
		c0,3.332-1.847,3.932-5.374,3.642c-3.273-0.269-6.543-0.516-9.815-0.738c-3.565-0.24-5.382-0.928-5.382-4.453V45.66z
		 M191.342,40.485c6.314,0.15,12.628,0.388,18.939,0.712v2.39c-5.455-0.278-10.915-0.493-16.377-0.644v3.651
		c4.858,0.136,9.714,0.32,14.567,0.554v2.393c-4.854-0.235-9.709-0.42-14.567-0.554v4.007c5.462,0.15,10.922,0.365,16.377,0.646
		v2.39c-6.312-0.321-12.625-0.558-18.939-0.711V40.485z M164.904,44.618c0-3.23,1.624-4.292,4.902-4.316
		c4.706-0.034,9.414-0.017,14.12,0.046v2.391c-5.032-0.065-10.064-0.08-15.096-0.039c-0.681,0.007-1.363,0.595-1.363,1.274v7.432
		c0,0.68,0.683,1.353,1.363,1.346c4.513-0.038,9.023-0.031,13.536,0.02v-4.009c-2.619-0.028-5.238-0.043-7.855-0.041v-2.394
		c3.473,0,6.947,0.027,10.419,0.078v8.79c-4.88-0.073-9.76-0.092-14.638-0.063c-3.572,0.024-5.389-0.591-5.389-4.051V44.618z
		 M138.3,41.232l2.562-0.13v11.182c0,0.681,0.584,1.233,1.36,1.198c4.11-0.191,8.219-0.347,12.329-0.465
		c0.781-0.021,1.301-0.617,1.301-1.296V40.538c0.875-0.024,1.75-0.046,2.629-0.065v10.729c0,3.395-1.788,4.14-5.39,4.251
		c-3.135,0.096-6.272,0.213-9.407,0.353c-3.342,0.15-5.384-0.483-5.384-3.845V41.232z M135.185,88.28
		c0.165-0.21,0.215-0.249,0.438-0.394c0.312-0.204,1.376-0.903,2.449-1.613l0.795-0.526c0.644-0.428,1.219-0.812,1.542-1.035
		c0.161-0.109,0.263-0.187,0.464-0.336c2.335-1.756,6.021-4.854,8.219-6.771c0.498-0.433,0.92-0.938,1.267-1.499
		c0.711-1.147,1.486-2.39,1.963-3.079c0.408-0.598,1.104-1.016,1.972-1.094c12.173-1.067,28.648-1.357,44.386-0.169
		c0.895,0.067,1.765,0.278,2.592,0.626c5.156,2.163,14.304,6.895,24.475,12.7c0.45,0.256,0.871,0.556,1.259,0.897
		c2.696,2.369,9.521,9.336,9.521,9.336l-2.129-0.42c-0.298-0.059-0.578-0.175-0.83-0.344c-4.306-2.887-10.595-6.644-15.864-9.294
		c-0.627-0.311-1.304-0.513-1.999-0.585c-2.563-0.273-6.029-0.513-8.297-0.605c-1.117-0.046-1.88-0.233-2.973-0.787
		c-2.091-1.057-7.154-3.348-9.678-4.308c-1.077-0.412-1.629-0.508-2.687-0.492c-4.333,0.063-14.208,0.377-19.249,0.689
		c-0.174,0.01-0.342,0.002-0.511-0.024l-2.403-0.375c6.815-1.17,23.66-2.668,30.632-3.034l-2.837-0.946
		c-0.549-0.181-1.118-0.279-1.697-0.293c-1.514-0.036-4.882-0.103-9.249-0.108h-1.493c-6.618,0.013-15.133,0.174-22.985,0.765
		c-0.687,0.05-1.355,0.215-1.986,0.493c-3.172,1.389-10.908,5.574-18.666,9.872l-1.722,0.956c-2.006,1.114-3.991,2.224-5.875,3.28
		C134.029,89.763,134.998,88.522,135.185,88.28z M186.417,106.906c0.543,2.995,2.809,13.454,2.809,13.454l-1.426-1.294
		c-0.284-0.262-0.471-0.537-0.593-0.898c-1.012-2.959-2.91-9.14-3.782-12.148c-0.141-0.496-0.034-1.026,0.294-1.42
		c1.485-1.8,3.652-4.679,4.919-6.503c0.352-0.513,0.469-1.079,0.261-1.502c-0.291-0.595-0.78-1.5-1.252-2.32
		c-0.126-0.228-0.337-0.396-0.587-0.479l-1.709-0.548c-0.299-0.094-0.618-0.088-0.914,0.017c-3.727,1.348-8.736,3.291-11.802,4.558
		c-0.448,0.188-0.632,0.202-1.176,0.119c-0.887-0.131-3.472-0.593-4.74-0.83c-0.229-0.043-0.342-0.3-0.227-0.5l1.504-2.598
		c0.203-0.352,0.541-0.601,0.938-0.69c4.836-1.098,11.232-2.36,17.313-3.43c0.362-0.063,0.733-0.012,1.065,0.145l2.519,1.202
		c0.248,0.119,0.431,0.343,0.496,0.615c0.343,1.437,0.762,3.341,1.042,4.959c0.115,0.672-0.012,1.359-0.354,1.952
		c-1.044,1.807-3.184,5.059-4.382,6.806C186.366,105.964,186.334,106.438,186.417,106.906z M128.656,100.096l0.159-0.344
		c0.075-0.162,0.208-0.29,0.374-0.36l3.438-1.457c0.258-0.108,0.483-0.275,0.655-0.491l5.312-6.522
		c0.284-0.349,0.655-0.683,1.05-0.892c3.51-1.84,9.75-4.605,14.119-6.062c0.413-0.139,0.969-0.226,1.403-0.23l5.027-0.07
		c0.279-0.002,0.454,0.298,0.315,0.538l-5.883,10.105c-0.329,0.596-0.876,1.039-1.527,1.234l-11.031,3.443
		c-1.28,0.387-2.363,0.595-3.695,0.697C135.924,99.869,128.656,100.096,128.656,100.096z M133.202,104.308
		c-0.114,0.273-0.466,0.54-0.754,0.603l-2.414,0.535c-0.145,0.032-0.279-0.085-0.27-0.232l0.227-2.826
		c0.017-0.191,0.167-0.343,0.358-0.358l2.387-0.204c0.23-0.019,0.45,0.109,0.539,0.32
		C133.578,102.849,133.495,103.635,133.202,104.308z M112.964,43.014c6.3-0.558,12.604-1.03,18.912-1.417v2.39
		c-5.454,0.336-10.907,0.736-16.354,1.198v3.653c4.846-0.414,9.694-0.774,14.544-1.084v2.393c-4.851,0.31-9.699,0.67-14.544,1.081
		v4.009c5.446-0.464,10.899-0.864,16.354-1.198v2.391c-6.308,0.387-12.611,0.861-18.912,1.42V43.014z M89.979,60.273
		c-0.87,0.106-1.743,0.214-2.614,0.324V45.764c5.023-0.634,10.05-1.212,15.085-1.737c3.006-0.31,4.688,0.856,4.688,3.893v1.679
		c0,3.107-1.681,4.362-4.688,4.675c-4.159,0.433-8.319,0.902-12.471,1.41V60.273z M107.519,136.042c0,0-0.393-0.126-0.942-0.439
		c-0.375-0.217-0.566-0.395-0.979-0.83c-1.338-1.41-3.538-4.111-4.595-5.676c-0.311-0.462-0.441-1.05-0.054-1.522
		c1.147-1.408,3.451-3.977,4.722-5.298c0.135-0.143,0.307-0.393,0.489-0.75c0.428-0.847,0.992-2.993,1.188-3.768l0.063-0.25
		l0.007-0.034c0,0-0.012,0.007-0.033,0.021l-0.232,0.146c-0.315,0.197-0.822,0.516-1.042,0.653
		c-0.327,0.208-0.417,0.298-0.554,0.584c-0.205,0.43-0.566,1.11-0.84,1.582c-0.089,0.154-0.331,0.394-0.458,0.493
		c-1.624,1.236-3.415,2.564-4.691,3.459c-0.088,0.062-0.199,0.034-0.274-0.039c-0.163-0.162-0.844-0.933-0.965-1.115
		c-0.102-0.152-0.148-0.295-0.148-0.479c-0.002-0.322,0.028-0.888,0.06-1.309c0.04-0.498,0.182-0.735,0.791-1.365
		c0.682-0.704,1.424-1.444,2.205-2.204c1.914-1.606,6.745-5.517,15.372-11.657c0.162-0.116,0.31-0.252,0.43-0.414
		c0.907-1.219,3.479-4.548,4.114-5.339c0.09-0.112,0.189-0.217,0.304-0.305c1.016-0.801,1.52-1.147,2.549-1.795
		c2.403-1.511,7.057-4.264,9.665-5.776l-0.99,1.215c-0.055,0.053-0.109,0.104-0.164,0.16c-0.871,0.641-4.535,3.44-5.527,4.225
		c-0.282,0.222-0.393,0.415-0.458,0.767c-0.224,1.239-0.594,3.592-0.704,4.896c-0.031,0.382-0.196,0.571-0.587,0.729
		c-1.7,0.689-3.715,1.415-5.346,2.067c-0.349,0.138-0.445,0.191-0.652,0.348c-0.162,0.126-2.328,2.054-2.328,2.054
		s4.708-1.157,6.434-1.546c0.413-0.092,0.59-0.068,0.971,0.111c0.356,0.165,0.951,0.399,1.263,0.513
		c0.481,0.177,0.736,0.169,1.267,0.054c1.945-0.434,5.217-1.208,6.958-1.66c0.904-0.236,1.399-0.48,2.165-1.014
		c0.834-0.579,2.947-2.158,2.947-2.158s-0.039,0.278-0.068,0.433c-0.021,0.133-0.07,0.208-0.158,0.313
		c-0.429,0.516-1.181,1.355-1.554,1.74c-0.856,0.882-1.368,1.197-2.442,1.645c-4.947,2.056-13.402,5.25-19.744,7.44
		c-0.414,0.145-0.594,0.264-0.901,0.578c-0.335,0.339-0.782,0.832-0.782,0.832s5.171,0.376,6.75,0.556
		c0.511,0.059,0.878,0.226,1.268,0.562c1.298,1.113,5.592,5.524,6.878,7.055c0,0-12.21,2.025-17.869,3.425
		c-0.698,0.172-1.048,0.615-1.206,1.174C108.622,130.768,107.519,136.042,107.519,136.042z M138.014,137.994
		c-1.805,2.962-3.96,6.106-5.59,8.069c-0.213,0.259-0.498,0.457-0.82,0.579c-1.783,0.664-4.753,1.664-6.941,2.331L138.014,137.994z
		 M113.102,141.433l-3.621-4.237c0.66-1.426,2.588-2.771,4.685-3.09L113.102,141.433z M128.993,164.678
		c-1.308,0.434-4.5,1.328-5.494,1.546c-0.775,0.168-1.271-0.139-1.47-1.015c0,0-1.36-5.775-1.852-7.743
		c-0.078-0.299-0.156-0.558-0.25-0.853c-0.369-1.138-1.253-3.373-1.754-4.544c-0.057-0.136-0.086-0.28-0.084-0.431
		c0.015-1.338,0.263-4.323,0.263-4.323s2.936,2.747,4.357,3.737c0.32,0.227,0.511,0.271,0.904,0.172
		c1.953-0.5,6.442-1.98,8.906-2.902c0.563-0.207,1.055-0.563,1.438-1.022c2.549-3.072,5.745-7.848,7.591-11.45
		c0.253-0.496,0.302-1.064,0.143-1.598l-0.397-1.306c-0.116-0.382-0.521-0.813-0.896-0.956c-4.343-1.647-7.767-2.872-11.79-4.239
		l0.479-0.153c0.573-0.183,1.182-0.205,1.764-0.064c2.624,0.628,8.177,1.986,12.375,3.058c0.59,0.15,1.325,0.699,1.638,1.22
		l0.914,1.516c0.319,0.533,0.342,1.186,0.058,1.737c-0.763,1.476-1.852,3.474-3.003,5.534l-0.87,1.55
		c-1.602,2.837-3.198,5.571-4.104,7.012c-0.596,0.951-0.929,1.373-1.991,1.748c-4.129,1.449-9.259,3.182-12.307,4.166
		c-0.624,0.201-0.835,0.578-0.712,1.267c0.217,1.258,0.92,5.52,1.19,6.762c0.099,0.461,0.467,0.826,1.151,0.694
		c1.802-0.339,6.599-1.51,6.599-1.51s-1.414,1.303-2.26,2.072C129.374,164.506,129.194,164.614,128.993,164.678z M168.73,224.08
		l-0.371-0.185c-0.298-0.148-0.692-0.344-1.146-0.569l-1.103-0.55c-1.69-0.846-3.705-1.864-4.765-2.433
		c-0.436-0.234-0.846-0.51-1.227-0.829c-5.793-4.798-23.549-25.521-28.771-34.173c-1.302-2.159-1.436-2.859-1.261-4.903
		c0.327-3.806,0.834-8.591,1.277-10.688c0.27-1.265,0.549-2.01,1.521-3.127c3.268-3.75,7.255-8.705,11.139-13.787l1.365-1.797
		c5.887-7.797,11.31-15.603,13.333-19.578c0.465-0.904,0.503-1.219,0.513-2.073c0.026-2.478-0.766-7.302-0.975-8.521
		c-0.032-0.19-0.042-0.384-0.025-0.578l0.224-2.816c0,0,0.836,2.702,1.643,5.637l0.281,1.041c0.511,1.912,0.964,3.799,1.128,4.994
		c0.158,1.149,0.132,1.458-0.278,2.56c-0.994,2.637-2.823,6.877-4.773,11.214l-0.842,1.86c-2.394,5.26-4.818,10.342-5.994,12.543
		c-0.581,1.084-1.126,1.789-2.218,2.896c-2.491,2.528-7.258,7.308-10.21,9.979c-1.072,0.972-1.36,1.804-1.578,3.063
		c-0.352,2.018-0.701,5.466-0.798,7.246c-0.085,1.565,0.17,2.299,1.045,3.851c5.201,9.254,22.569,30.545,27.517,35.018
		c0.358,0.322,0.62,0.54,1.376,1.041c0.727,0.485,3.099,2.019,3.099,2.019c0.095,0.064,0.176,0.15,0.236,0.251l0.858,1.51
		C168.955,224.193,168.875,224.151,168.73,224.08z M161.099,191.959c-0.504-1.299-0.601-1.94-0.043-4.334
		c2.973-12.694,11.018-34.266,13.277-39.486c0,0,0.669,3.96,0.874,5.109c0.114,0.65,0.139,0.824-0.027,1.463
		c-0.534,2.053-3.005,12.881-4.983,23.96l-0.307,1.752c-0.81,4.668-1.507,9.302-1.914,13.266c-0.23,2.252-0.155,2.791,0.441,4.789
		c1.69,5.647,7.941,20.402,9.144,23.093c0.133,0.298,0.212,0.608,0.25,0.93l0.452,3.48
		C176.259,222.963,165.375,203.012,161.099,191.959z M225.042,179.659c-0.305,1.162-0.647,1.756-1.768,2.595
		c-3.605,2.707-8.99,7.022-14.345,11.421l-1.688,1.391c-6.449,5.324-12.578,10.54-15.178,12.941
		c-0.652,0.604-1.223,1.284-1.687,2.043c-1.22,1.976-3.081,5.378-3.996,7.067l-0.254,0.473c-0.186,0.341-0.29,0.537-0.29,0.537
		c-1.214-2.639-3.857-9.077-4.764-11.683c-0.297-0.849-0.351-1.293-0.037-2.432c1.479-5.397,8.473-21.09,9.832-23.928l0.002,1.163
		c0,0.167-0.027,0.335-0.08,0.494c-0.612,1.855-4.373,14.223-5.137,19.588c-0.169,1.193-0.155,1.514,0,2.685
		c0.334,2.505,1.837,7.097,1.837,7.097s0.89-1.853,1.719-3.104c0.408-0.615,0.652-0.911,1.316-1.568
		c3.362-3.316,9.097-8.443,15.069-13.598l2.115-1.817c4.588-3.928,9.168-7.748,12.786-10.67c0.942-0.76,1.294-1.267,1.503-2.709
		c1.037-7.104,1.337-19.854,0.712-29.134c-0.119-1.751-0.688-3.444-1.679-4.898c-2.27-3.347-4.983-6.514-9.1-10.58
		c-0.587-0.584-0.987-1.328-1.136-2.141c-1.201-6.387-3.882-18.069-3.882-18.069l1.502,0.65c0.443,0.191,0.85,0.472,1.183,0.821
		c9.205,9.581,16.565,19.516,18.04,22.133c0.281,0.503,0.479,1.006,0.548,1.582C229.844,151.98,228.421,166.782,225.042,179.659z
		 M246.548,135.254c-0.072,0.678-0.208,1.082-0.562,1.805c-4.313,8.796-9.166,17.072-14.272,23.458l0.011-0.103
		c0.065-0.682,0.432-4.516,0.451-6.59c0.004-0.234,0.111-0.45,0.299-0.593c0.947-0.735,2.251-1.781,2.987-2.417
		c0.359-0.309,0.559-0.541,0.745-0.843c2.081-3.353,5.802-10.374,7.3-14.598c0.367-1.03,0.511-2.122,0.422-3.213
		c-0.48-5.886-1.406-14.042-2.785-19.365c-0.236-0.907-0.837-1.674-1.675-2.103c-1.19-0.61-3.526-1.672-8.845-3.798
		c-0.737-0.296-1.426-0.704-2.033-1.212c-3.486-2.922-8.938-7.305-12.332-9.825c-0.991-0.738-2.256-1.007-3.465-0.733
		c-2.471,0.56-5.616,1.338-7.387,1.817c-0.602,0.162-0.839,0.176-1.461,0.104c-0.321-0.037-0.74-0.078-1.18-0.118l-0.665-0.059
		c-0.772-0.065-1.497-0.121-1.782-0.143l-0.126-0.009c5.77-2.703,11.32-5.035,14.796-6.303h0.001
		c0.954-0.351,2.001-0.326,2.94,0.068c7.28,3.048,19.522,10.22,26.328,15.271c0.657,0.488,0.919,0.825,1.091,1.613
		C246.948,114.616,247.555,125.82,246.548,135.254z M261.893,48.155c-2.858-0.36-5.724-0.704-8.591-1.028V59.57
		c-0.869-0.099-1.739-0.197-2.615-0.292V46.834c-2.885-0.317-5.774-0.614-8.664-0.895v-2.394c6.632,0.644,13.257,1.384,19.87,2.216
		V48.155z"/>
	<path d="M104.582,50.467v-3.005c0-0.68-0.68-1.193-1.356-1.123c-4.418,0.455-8.835,0.951-13.247,1.49v5.461
		c4.412-0.538,8.829-1.036,13.247-1.488C103.902,51.73,104.582,51.114,104.582,50.467z"/>
	<path d="M220.632,54.246c4.245,0.281,8.487,0.6,12.729,0.958c0.679,0.058,1.358-0.564,1.358-1.241v-7.338
		c0-0.774-0.68-1.416-1.358-1.473c-4.242-0.358-8.484-0.678-12.729-0.956c-0.778-0.054-1.363,0.491-1.363,1.268v7.335
		C219.269,53.479,219.854,54.193,220.632,54.246z"/>
	<path d="M287.212,23.239c-38.367-6.598-76.166-9.696-112.582-9.696c-36.417,0-74.218,3.098-112.583,9.696
		c-0.573,15.326-1.225,39.016-0.128,59.117c2.442,44.818,12.344,79.606,31.161,109.478c18.76,29.784,47.813,55.396,81.551,70.606
		c33.737-15.21,62.786-40.822,81.547-70.606c18.82-29.872,28.719-64.66,31.164-109.478
		C288.433,62.255,287.783,38.565,287.212,23.239z M281.053,85.46c-2.31,42.318-11.656,75.164-29.425,103.369
		c-17.716,28.124-45.144,52.307-76.998,66.667c-31.855-14.36-59.288-38.543-77.001-66.667
		C79.863,160.625,70.514,127.778,68.207,85.46c-1.036-18.98-0.42-41.348,0.122-55.818c36.226-6.23,71.917-9.155,106.302-9.155
		c34.384,0,70.074,2.925,106.299,9.155C281.47,44.112,282.083,66.48,281.053,85.46z"/>
</g>
</svg>
