<?xml version="1.0" encoding="utf-8"?>
<!-- Generator: Adobe Illustrator 16.0.0, SVG Export Plug-In . SVG Version: 6.00 Build 0)  -->
<!DOCTYPE svg PUBLIC "-//W3C//DTD SVG 1.1//EN" "http://www.w3.org/Graphics/SVG/1.1/DTD/svg11.dtd">
<svg version="1.1" id="Layer_3" xmlns="http://www.w3.org/2000/svg" xmlns:xlink="http://www.w3.org/1999/xlink" x="0px" y="0px"
	 width="200px" height="200px" viewBox="0 0 200 200" enable-background="new 0 0 200 200" xml:space="preserve">
<g>
	<path d="M100,28.094c-21.713,0-43.756,1.839-65.551,5.47c-0.479,13.75-0.479,24.692-0.003,33.396
		c1.451,26.645,7.313,47.291,18.449,64.966c11.134,17.673,27.829,32.273,47.105,41.22c19.275-8.946,35.971-23.547,47.105-41.22
		c11.136-17.677,16.997-38.322,18.449-64.966c0.476-8.704,0.476-19.646-0.003-33.396C143.758,29.933,121.711,28.094,100,28.094z
		 M126.954,41.606c0-2.131,1.057-2.569,3.447-2.409c2.095,0.145,4.19,0.301,6.286,0.475c2.073,0.17,3.442,0.751,3.442,2.925v4.244
		c0,2.134-1.183,2.519-3.442,2.333c-2.096-0.172-4.191-0.33-6.286-0.472c-2.284-0.154-3.447-0.595-3.447-2.853V41.606z
		 M110.705,38.292c4.045,0.096,8.089,0.249,12.131,0.457v1.53c-3.493-0.178-6.99-0.316-10.489-0.412v2.338
		c3.111,0.087,6.223,0.206,9.331,0.355v1.533c-3.109-0.151-6.22-0.27-9.331-0.355v2.567c3.499,0.096,6.996,0.234,10.489,0.414v1.531
		c-4.043-0.206-8.086-0.357-12.131-0.456V38.292z M93.771,40.939c0-2.069,1.04-2.75,3.141-2.766c3.014-0.021,6.029-0.01,9.044,0.03
		v1.532c-3.224-0.042-6.447-0.051-9.67-0.025c-0.436,0.004-0.873,0.381-0.873,0.816v4.761c0,0.436,0.438,0.867,0.873,0.862
		c2.891-0.024,5.779-0.02,8.672,0.013v-2.568c-1.678-0.018-3.356-0.028-5.032-0.026v-1.534c2.225,0,4.449,0.018,6.673,0.05v5.63
		c-3.125-0.047-6.251-0.059-9.376-0.041c-2.288,0.016-3.452-0.378-3.452-2.595L93.771,40.939L93.771,40.939z M76.729,38.77
		l1.641-0.083v7.163c0,0.436,0.374,0.79,0.872,0.767c2.632-0.122,5.265-0.222,7.896-0.298c0.5-0.013,0.833-0.395,0.833-0.83v-7.163
		c0.561-0.015,1.121-0.03,1.684-0.042v6.872c0,2.175-1.145,2.652-3.452,2.723c-2.008,0.062-4.018,0.137-6.026,0.226
		c-2.141,0.096-3.448-0.31-3.448-2.463V38.77L76.729,38.77z M74.734,68.907c0.105-0.135,0.138-0.159,0.28-0.252
		c0.2-0.131,0.882-0.579,1.569-1.033l0.509-0.337c0.413-0.274,0.781-0.52,0.988-0.663c0.103-0.07,0.168-0.12,0.297-0.215
		c1.495-1.125,3.856-3.11,5.264-4.337c0.319-0.278,0.589-0.601,0.812-0.96c0.455-0.735,0.952-1.532,1.257-1.972
		c0.261-0.383,0.707-0.651,1.263-0.701c7.797-0.684,18.35-0.869,28.431-0.108c0.574,0.042,1.132,0.178,1.661,0.4
		c3.303,1.386,9.162,4.417,15.678,8.135c0.287,0.164,0.559,0.356,0.806,0.574c1.728,1.518,6.099,5.98,6.099,5.98l-1.363-0.269
		c-0.191-0.038-0.37-0.112-0.532-0.22c-2.759-1.85-6.786-4.256-10.16-5.953c-0.402-0.199-0.836-0.329-1.282-0.375
		c-1.641-0.175-3.862-0.329-5.314-0.388c-0.716-0.03-1.205-0.15-1.903-0.504c-1.34-0.677-4.584-2.145-6.199-2.759
		c-0.691-0.264-1.044-0.326-1.722-0.315c-2.776,0.04-9.102,0.242-12.331,0.441c-0.111,0.006-0.219,0.001-0.327-0.016l-1.54-0.24
		c4.367-0.749,15.155-1.708,19.621-1.943l-1.815-0.606c-0.354-0.116-0.717-0.179-1.088-0.188c-0.969-0.023-3.128-0.066-5.925-0.069
		h-0.956c-4.239,0.009-9.694,0.111-14.724,0.491c-0.439,0.032-0.867,0.137-1.271,0.315c-2.032,0.89-6.987,3.571-11.957,6.324
		l-1.103,0.612c-1.285,0.714-2.557,1.425-3.764,2.101C73.994,69.856,74.614,69.062,74.734,68.907z M107.552,80.837
		c0.348,1.918,1.799,8.618,1.799,8.618l-0.913-0.828c-0.183-0.168-0.302-0.344-0.382-0.576c-0.646-1.896-1.863-5.855-2.421-7.782
		c-0.091-0.318-0.023-0.657,0.188-0.909c0.952-1.153,2.34-2.997,3.151-4.165c0.226-0.329,0.301-0.692,0.167-0.963
		c-0.187-0.381-0.5-0.961-0.803-1.485c-0.079-0.146-0.215-0.254-0.374-0.308l-1.096-0.351c-0.192-0.061-0.396-0.056-0.586,0.011
		c-2.387,0.864-5.596,2.108-7.56,2.92c-0.287,0.12-0.405,0.129-0.753,0.076c-0.568-0.084-2.224-0.379-3.036-0.532
		c-0.146-0.027-0.219-0.191-0.145-0.32l0.963-1.664c0.13-0.225,0.347-0.385,0.601-0.442c3.098-0.703,7.195-1.512,11.091-2.197
		c0.232-0.04,0.469-0.008,0.682,0.093l1.614,0.771c0.159,0.076,0.275,0.219,0.318,0.394c0.219,0.92,0.488,2.14,0.667,3.176
		c0.073,0.431-0.009,0.871-0.228,1.251c-0.669,1.157-2.038,3.24-2.808,4.359C107.519,80.234,107.498,80.537,107.552,80.837z
		 M70.552,76.475l0.102-0.22c0.049-0.104,0.133-0.186,0.24-0.23l2.202-0.934c0.165-0.069,0.309-0.176,0.419-0.315l3.402-4.178
		c0.182-0.223,0.42-0.437,0.673-0.571c2.249-1.179,6.246-2.95,9.044-3.883c0.264-0.089,0.621-0.145,0.898-0.147l3.22-0.045
		c0.179-0.001,0.29,0.191,0.202,0.345l-3.769,6.473c-0.211,0.381-0.562,0.666-0.979,0.791l-7.066,2.205
		c-0.819,0.248-1.514,0.381-2.367,0.447C75.208,76.33,70.552,76.475,70.552,76.475z M73.464,79.173
		c-0.073,0.175-0.298,0.346-0.483,0.386l-1.546,0.342c-0.093,0.021-0.179-0.054-0.173-0.148l0.146-1.81
		c0.011-0.123,0.107-0.22,0.229-0.229l1.529-0.13c0.146-0.013,0.288,0.07,0.345,0.205C73.705,78.239,73.652,78.742,73.464,79.173z
		 M60.5,39.912c4.036-0.358,8.074-0.661,12.114-0.908v1.531c-3.494,0.215-6.986,0.471-10.475,0.767v2.34
		c3.104-0.265,6.209-0.496,9.316-0.694v1.533c-3.107,0.199-6.213,0.43-9.316,0.692v2.568c3.488-0.297,6.981-0.553,10.475-0.767
		v1.531c-4.04,0.248-8.077,0.552-12.114,0.91V39.912z M45.778,50.967c-0.558,0.068-1.117,0.137-1.675,0.208v-9.501
		c3.218-0.406,6.438-0.777,9.663-1.113c1.925-0.199,3.002,0.548,3.002,2.494v1.076c0,1.99-1.077,2.793-3.002,2.995
		c-2.665,0.277-5.329,0.577-7.988,0.903V50.967z M57.013,99.501c0,0-0.251-0.081-0.603-0.281c-0.241-0.14-0.363-0.253-0.627-0.532
		c-0.857-0.903-2.266-2.633-2.943-3.635c-0.199-0.297-0.283-0.674-0.035-0.976c0.735-0.901,2.21-2.547,3.025-3.393
		c0.086-0.092,0.196-0.252,0.313-0.48c0.273-0.543,0.635-1.917,0.761-2.414l0.041-0.16l0.004-0.022c0,0-0.007,0.005-0.021,0.014
		l-0.148,0.093c-0.202,0.126-0.526,0.331-0.667,0.418c-0.209,0.133-0.267,0.191-0.355,0.374c-0.131,0.275-0.362,0.711-0.538,1.013
		c-0.057,0.099-0.211,0.252-0.293,0.316c-1.041,0.792-2.187,1.642-3.004,2.215c-0.057,0.04-0.127,0.022-0.175-0.024
		c-0.104-0.104-0.541-0.598-0.618-0.715c-0.065-0.097-0.095-0.188-0.095-0.306c-0.001-0.207,0.018-0.569,0.039-0.839
		c0.025-0.319,0.116-0.471,0.506-0.875c0.437-0.45,0.912-0.924,1.412-1.411c1.226-1.029,4.321-3.535,9.847-7.467
		c0.104-0.074,0.198-0.162,0.275-0.265c0.581-0.781,2.228-2.913,2.635-3.42c0.058-0.072,0.122-0.139,0.195-0.195
		c0.65-0.513,0.973-0.735,1.632-1.15c1.54-0.968,4.52-2.731,6.191-3.699l-0.633,0.778c-0.036,0.034-0.07,0.066-0.105,0.103
		c-0.559,0.411-2.905,2.204-3.541,2.706c-0.181,0.142-0.251,0.266-0.294,0.491c-0.143,0.794-0.381,2.301-0.451,3.136
		c-0.02,0.246-0.125,0.366-0.376,0.467c-1.089,0.441-2.38,0.907-3.425,1.324c-0.223,0.088-0.285,0.123-0.417,0.224
		c-0.104,0.08-1.491,1.315-1.491,1.315s3.016-0.742,4.121-0.99c0.264-0.06,0.378-0.044,0.622,0.071
		c0.228,0.105,0.609,0.255,0.809,0.328c0.308,0.113,0.471,0.108,0.812,0.034c1.246-0.277,3.341-0.773,4.458-1.063
		c0.579-0.151,0.896-0.308,1.386-0.649c0.534-0.371,1.888-1.382,1.888-1.382s-0.025,0.178-0.043,0.277
		c-0.013,0.085-0.045,0.133-0.102,0.201c-0.274,0.33-0.756,0.868-0.995,1.115c-0.548,0.564-0.877,0.767-1.565,1.053
		c-3.168,1.317-8.584,3.363-12.646,4.766c-0.265,0.093-0.381,0.169-0.578,0.37c-0.214,0.217-0.5,0.533-0.5,0.533
		s3.312,0.242,4.324,0.356c0.327,0.038,0.562,0.145,0.812,0.36c0.831,0.713,3.582,3.538,4.405,4.519c0,0-7.821,1.298-11.446,2.194
		c-0.447,0.11-0.671,0.394-0.772,0.752C57.719,96.122,57.013,99.501,57.013,99.501z M76.546,100.751
		c-1.156,1.897-2.536,3.91-3.581,5.168c-0.136,0.167-0.319,0.293-0.525,0.371c-1.143,0.426-3.044,1.065-4.446,1.493L76.546,100.751z
		 M60.589,102.953l-2.319-2.713c0.423-0.914,1.657-1.776,3.001-1.98L60.589,102.953z M70.768,117.843
		c-0.838,0.278-2.882,0.851-3.519,0.991c-0.496,0.106-0.814-0.09-0.941-0.65c0,0-0.872-3.699-1.187-4.96
		c-0.05-0.191-0.1-0.357-0.16-0.546c-0.236-0.73-0.803-2.16-1.124-2.912c-0.036-0.086-0.055-0.179-0.054-0.274
		c0.01-0.858,0.168-2.77,0.168-2.77s1.881,1.759,2.791,2.394c0.206,0.146,0.328,0.174,0.58,0.11c1.25-0.32,4.126-1.27,5.705-1.859
		c0.36-0.133,0.676-0.36,0.921-0.655c1.632-1.966,3.68-5.026,4.862-7.334c0.162-0.318,0.193-0.682,0.092-1.023l-0.254-0.837
		c-0.075-0.244-0.333-0.521-0.574-0.612c-2.783-1.056-4.976-1.84-7.553-2.715l0.308-0.099c0.367-0.117,0.757-0.131,1.13-0.041
		c1.681,0.402,5.237,1.272,7.927,1.959c0.377,0.096,0.848,0.448,1.049,0.782l0.585,0.97c0.206,0.342,0.219,0.76,0.038,1.112
		c-0.488,0.946-1.186,2.226-1.923,3.546l-0.558,0.991c-1.026,1.818-2.048,3.57-2.628,4.493c-0.382,0.608-0.596,0.88-1.275,1.118
		c-2.645,0.929-5.931,2.039-7.884,2.67c-0.399,0.128-0.534,0.369-0.456,0.812c0.139,0.805,0.589,3.534,0.762,4.331
		c0.064,0.295,0.299,0.529,0.737,0.444c1.155-0.217,4.227-0.968,4.227-0.968s-0.906,0.836-1.447,1.328
		C71.012,117.732,70.896,117.802,70.768,117.843z M96.222,155.893l-0.238-0.118c-0.191-0.095-0.444-0.22-0.734-0.364l-0.707-0.354
		c-1.082-0.541-2.373-1.192-3.051-1.557c-0.279-0.15-0.542-0.328-0.787-0.531c-3.71-3.074-15.084-16.348-18.429-21.89
		c-0.834-1.383-0.92-1.831-0.808-3.142c0.209-2.438,0.534-5.502,0.818-6.846c0.173-0.811,0.352-1.287,0.974-2.002
		c2.094-2.402,4.647-5.577,7.135-8.832l0.875-1.15c3.771-4.995,7.244-9.995,8.54-12.542c0.298-0.579,0.322-0.78,0.329-1.327
		c0.016-1.588-0.491-4.678-0.625-5.458c-0.021-0.122-0.026-0.247-0.016-0.37l0.144-1.804c0,0,0.536,1.731,1.053,3.61l0.18,0.667
		c0.327,1.225,0.617,2.434,0.723,3.199c0.101,0.737,0.085,0.935-0.178,1.641c-0.637,1.688-1.809,4.405-3.058,7.183l-0.539,1.192
		c-1.534,3.369-3.086,6.624-3.84,8.033c-0.372,0.694-0.721,1.146-1.421,1.855c-1.595,1.619-4.649,4.681-6.54,6.393
		c-0.687,0.622-0.871,1.155-1.011,1.961c-0.226,1.293-0.45,3.502-0.512,4.642c-0.054,1.003,0.108,1.473,0.669,2.467
		c3.332,5.928,14.457,19.565,17.626,22.431c0.229,0.207,0.397,0.347,0.881,0.667c0.466,0.311,1.985,1.293,1.985,1.293
		c0.062,0.042,0.113,0.097,0.151,0.161l0.55,0.967C96.366,155.966,96.314,155.938,96.222,155.893z M91.333,135.317
		c-0.322-0.831-0.385-1.242-0.027-2.775c1.904-8.131,7.058-21.948,8.504-25.293c0,0,0.429,2.537,0.56,3.272
		c0.073,0.418,0.089,0.528-0.018,0.938c-0.341,1.314-1.925,8.251-3.191,15.347l-0.196,1.123c-0.52,2.989-0.966,5.958-1.227,8.498
		c-0.147,1.441-0.1,1.787,0.282,3.067c1.083,3.616,5.086,13.067,5.857,14.792c0.084,0.19,0.137,0.39,0.159,0.596l0.291,2.228
		C101.044,155.178,94.072,142.397,91.333,135.317z M132.292,127.439c-0.195,0.743-0.414,1.125-1.133,1.662
		c-2.309,1.733-5.758,4.497-9.188,7.314l-1.08,0.893c-4.132,3.41-8.058,6.75-9.724,8.289c-0.417,0.387-0.783,0.822-1.08,1.308
		c-0.781,1.266-1.974,3.446-2.56,4.527l-0.162,0.304c-0.121,0.219-0.187,0.343-0.187,0.343c-0.777-1.689-2.471-5.814-3.052-7.483
		c-0.19-0.543-0.225-0.828-0.023-1.558c0.947-3.456,5.427-13.509,6.299-15.326v0.745c0,0.106-0.018,0.214-0.051,0.316
		c-0.392,1.188-2.802,9.11-3.291,12.547c-0.109,0.763-0.1,0.969,0,1.719c0.214,1.605,1.178,4.547,1.178,4.547
		s0.569-1.188,1.102-1.988c0.261-0.395,0.415-0.584,0.841-1.005c2.154-2.124,5.828-5.407,9.654-8.71l1.354-1.164
		c2.938-2.516,5.873-4.963,8.189-6.834c0.603-0.487,0.829-0.812,0.963-1.735c0.665-4.551,0.855-12.718,0.455-18.662
		c-0.076-1.122-0.439-2.206-1.074-3.137c-1.455-2.145-3.192-4.173-5.83-6.777c-0.375-0.374-0.632-0.851-0.727-1.372
		c-0.77-4.091-2.486-11.574-2.486-11.574l0.962,0.416c0.283,0.123,0.543,0.303,0.757,0.526c5.896,6.137,10.61,12.501,11.556,14.177
		c0.18,0.322,0.308,0.646,0.352,1.013C135.367,109.71,134.456,119.19,132.292,127.439z M146.068,98.996
		c-0.046,0.435-0.135,0.692-0.36,1.155c-2.763,5.635-5.872,10.937-9.142,15.027l0.006-0.066c0.042-0.438,0.278-2.893,0.289-4.222
		c0.002-0.15,0.071-0.288,0.191-0.38c0.607-0.471,1.442-1.141,1.914-1.548c0.229-0.198,0.358-0.347,0.477-0.54
		c1.334-2.147,3.717-6.645,4.677-9.351c0.235-0.66,0.326-1.359,0.271-2.059c-0.309-3.771-0.901-8.994-1.785-12.404
		c-0.15-0.581-0.536-1.072-1.072-1.347c-0.762-0.39-2.259-1.071-5.665-2.432c-0.473-0.19-0.914-0.452-1.303-0.777
		c-2.233-1.872-5.726-4.679-7.899-6.293c-0.635-0.473-1.444-0.646-2.219-0.47c-1.583,0.359-3.599,0.857-4.732,1.164
		c-0.387,0.104-0.537,0.112-0.937,0.066c-0.205-0.024-0.473-0.05-0.755-0.076l-0.426-0.038c-0.494-0.042-0.959-0.078-1.143-0.092
		l-0.08-0.006c3.695-1.731,7.252-3.225,9.479-4.037l0,0c0.61-0.225,1.282-0.209,1.883,0.043c4.663,1.953,12.506,6.547,16.864,9.782
		c0.421,0.313,0.589,0.528,0.699,1.033C146.324,85.776,146.712,92.953,146.068,98.996z M155.896,43.205
		c-1.83-0.23-3.666-0.451-5.502-0.659v7.971c-0.558-0.063-1.114-0.126-1.676-0.188v-7.97c-1.848-0.204-3.698-0.394-5.55-0.574
		v-1.533c4.248,0.412,8.491,0.887,12.728,1.419V43.205z"/>
	<path d="M55.132,44.686v-1.925c0-0.435-0.436-0.764-0.869-0.719c-2.83,0.292-5.66,0.609-8.485,0.955v3.498
		c2.826-0.345,5.655-0.664,8.485-0.954C54.696,45.495,55.132,45.1,55.132,44.686z"/>
	<path d="M129.468,47.106c2.718,0.18,5.436,0.384,8.153,0.613c0.436,0.037,0.869-0.361,0.869-0.795v-4.7
		c0-0.496-0.436-0.907-0.869-0.943c-2.718-0.229-5.436-0.435-8.153-0.613c-0.5-0.034-0.873,0.315-0.873,0.813v4.698
		C128.595,46.615,128.968,47.072,129.468,47.106z"/>
	<path d="M172.115,27.245c-24.576-4.227-48.788-6.211-72.115-6.211s-47.54,1.984-72.115,6.211
		c-0.367,9.817-0.785,24.991-0.082,37.867c1.564,28.708,7.907,50.99,19.96,70.125c12.016,19.079,30.625,35.485,52.237,45.227
		c21.611-9.741,40.219-26.147,52.234-45.227c12.056-19.135,18.396-41.417,19.962-70.125
		C172.897,52.236,172.48,37.062,172.115,27.245z M168.17,67.1c-1.479,27.106-7.467,48.146-18.848,66.213
		c-11.349,18.014-28.917,33.504-49.322,42.703c-20.405-9.199-37.977-24.689-49.323-42.703C39.297,115.247,33.31,94.207,31.832,67.1
		c-0.664-12.157-0.269-26.485,0.078-35.754c23.205-3.991,46.066-5.864,68.091-5.864c22.025,0,44.887,1.874,68.089,5.864
		C168.437,40.615,168.83,54.943,168.17,67.1z"/>
</g>
</svg>
