<?xml version="1.0" encoding="utf-8"?>
<!-- Generator: Adobe Illustrator 16.0.0, SVG Export Plug-In . SVG Version: 6.00 Build 0)  -->
<!DOCTYPE svg PUBLIC "-//W3C//DTD SVG 1.1//EN" "http://www.w3.org/Graphics/SVG/1.1/DTD/svg11.dtd">
<svg version="1.1" id="Layer_2" xmlns="http://www.w3.org/2000/svg" xmlns:xlink="http://www.w3.org/1999/xlink" x="0px" y="0px"
	 width="200px" height="200px" viewBox="0 0 200 200" enable-background="new 0 0 200 200" xml:space="preserve">
<g>
	<g>
		<path d="M94.001,21.681c-2.047,3.824-29.64,55.442-41.526,77.62c-0.412,0.767-0.38,1.322,0.022,2.072
			c11.645,21.731,35.246,65.814,35.489,66.226c0.244-0.408,23.845-44.494,35.489-66.223c0.402-0.75,0.438-1.305,0.021-2.072
			c-6.663-12.393-13.283-24.811-19.946-37.204c-0.428-0.792-0.456-1.384-0.013-2.183c1.831-3.302,3.587-6.645,5.443-10.111
			c0.264,0.447,17.923,33.41,26.583,49.561c0.363,0.678,0.396,1.186,0.021,1.885c-13.704,25.575-27.387,51.162-41.053,76.759
			c-0.365,0.685-0.735,0.994-1.565,0.981c-3.384-0.057-6.771-0.041-10.156-0.009c-0.627,0.006-0.96-0.194-1.254-0.751
			c-13.736-25.725-27.485-51.44-41.25-77.148c-0.285-0.535-0.311-0.935-0.016-1.489c13.768-25.714,27.514-51.431,41.282-77.139
			c0.174-0.323,0.583-0.738,0.887-0.741C86.238,21.661,90.015,21.681,94.001,21.681z"/>
		<path d="M109.654,37.428c-6.299,11.74-23.664,44.175-33.128,61.84c-0.402,0.755-0.431,1.309-0.019,2.073
			c6.664,12.396,13.283,24.812,19.947,37.203c0.428,0.795,0.45,1.385,0.006,2.185c-1.832,3.301-3.587,6.644-5.447,10.113
			c-0.247-0.418-17.903-33.385-26.582-49.567c-0.365-0.678-0.393-1.185-0.02-1.885c13.702-25.571,27.384-51.158,41.05-76.754
			c0.368-0.688,0.742-0.992,1.565-0.979c3.385,0.057,6.771,0.042,10.155,0.01c0.632-0.006,0.958,0.2,1.255,0.754
			c13.739,25.724,27.488,51.44,41.254,77.148c0.288,0.535,0.307,0.938,0.012,1.49c-13.764,25.706-27.509,51.424-41.277,77.131
			c-0.175,0.323-0.583,0.735-0.887,0.739c-3.777,0.05-7.555,0.03-11.513,0.03c0.26-0.506,27.865-52.172,41.501-77.619
			c0.411-0.767,0.379-1.322-0.026-2.072c-11.645-21.731-35.245-65.813-35.488-66.223C111.968,33.119,111.104,34.726,109.654,37.428"
			/>
	</g>
</g>
</svg>
