<?xml version="1.0" encoding="utf-8"?>
<!-- Generator: Adobe Illustrator 16.0.0, SVG Export Plug-In . SVG Version: 6.00 Build 0)  -->
<!DOCTYPE svg PUBLIC "-//W3C//DTD SVG 1.1//EN" "http://www.w3.org/Graphics/SVG/1.1/DTD/svg11.dtd">
<svg version="1.1" id="Calque_1" xmlns="http://www.w3.org/2000/svg" xmlns:xlink="http://www.w3.org/1999/xlink" x="0px" y="0px"
	 width="200px" height="200px" viewBox="0 0 612 618.397" enable-background="new 0 0 612 618.397" xml:space="preserve">
<g>
	<g>
		<path d="M282.5,2.101c-8.019,14.983-116.118,217.204-162.683,304.088c-1.613,3.004-1.489,5.177,0.087,8.119
			c45.621,85.134,138.079,257.835,139.035,259.448c0.955-1.602,93.413-174.314,139.034-259.436c1.576-2.942,1.713-5.115,0.087-8.119
			c-26.106-48.55-52.039-97.2-78.146-145.75c-1.676-3.104-1.787-5.425-0.05-8.553c7.176-12.935,14.053-26.032,21.327-39.612
			c1.03,1.75,70.213,130.891,104.14,194.164c1.428,2.657,1.552,4.643,0.087,7.386C391.73,414.028,338.126,514.27,284.586,614.548
			c-1.428,2.682-2.88,3.897-6.133,3.849c-13.258-0.224-26.528-0.162-39.786-0.038c-2.458,0.025-3.761-0.757-4.916-2.941
			C179.938,514.642,126.074,413.892,72.149,313.178c-1.117-2.098-1.216-3.662-0.062-5.834
			C126.025,206.605,179.876,105.855,233.814,5.142c0.683-1.266,2.284-2.892,3.476-2.905C252.087,2.026,266.884,2.101,282.5,2.101z"
			/>
		<path d="M343.824,63.797c-24.679,45.993-92.706,173.061-129.786,242.268c-1.576,2.955-1.688,5.127-0.074,8.119
			c26.106,48.563,52.039,97.2,78.145,145.75c1.676,3.116,1.763,5.425,0.025,8.554c-7.176,12.935-14.053,26.031-21.34,39.625
			c-0.968-1.639-70.138-130.792-104.139-194.189c-1.428-2.656-1.54-4.643-0.075-7.386c53.678-100.179,107.28-200.42,160.82-300.699
			c1.44-2.694,2.905-3.885,6.133-3.836c13.258,0.224,26.528,0.162,39.786,0.038c2.471-0.025,3.749,0.782,4.916,2.954
			c53.826,100.775,107.689,201.525,161.615,302.239c1.13,2.098,1.204,3.674,0.05,5.834
			C485.975,413.779,432.124,514.53,378.186,615.243c-0.683,1.266-2.284,2.88-3.476,2.893c-14.797,0.198-29.595,0.124-45.1,0.124
			c1.019-1.986,109.167-204.394,162.584-304.088c1.613-3.004,1.489-5.177-0.1-8.119C446.474,220.919,354.016,48.218,353.061,46.617
			C352.887,46.915,349.497,53.208,343.824,63.797"/>
	</g>
</g>
</svg>
