<?xml version="1.0" encoding="utf-8"?>
<!-- Generator: Adobe Illustrator 16.0.0, SVG Export Plug-In . SVG Version: 6.00 Build 0)  -->
<!DOCTYPE svg PUBLIC "-//W3C//DTD SVG 1.1//EN" "http://www.w3.org/Graphics/SVG/1.1/DTD/svg11.dtd">
<svg version="1.1" id="Layer_1" xmlns="http://www.w3.org/2000/svg" xmlns:xlink="http://www.w3.org/1999/xlink" x="0px" y="0px"
	 width="200px" height="200px" viewBox="0 0 1776.58 1149.538" enable-background="new 0 0 1776.58 1149.538"
	 xml:space="preserve">
<path d="M688.631,1142.912c-312.339-47.984-547.9-189.322-643.871-387.369C-77.384,503.404,56.103,237.306,376.292,96.841
	c197.175-86.373,465.882-116.909,719.774-83.755c401.329,54.092,680.514,281.802,680.514,554.88
	c0,262.608-233.817,478.977-606.354,560.115C1079.49,1147.274,780.239,1156.872,688.631,1142.912L688.631,1142.912z
	 M809.03,1060.029c-73.277-62.816-117.781-194.557-129.123-386.497l-6.979-108.184l-82.883-16.577
	c-98.588-20.066-193.685-56.709-258.255-99.459c-48.849-32.281-73.278-60.2-99.451-114.292l-14.832-31.409l-28.791,41.005
	c-75.903,111.674-82.011,252.139-16.576,385.625c82.011,166.639,301.877,303.614,548.772,343.746
	c35.771,5.235,71.541,11.343,78.521,13.088C843.928,1095.8,845.673,1090.565,809.03,1060.029z M1107.408,1063.52
	c233.817-53.22,417.905-177.108,495.554-333.277c43.623-88.118,58.455-168.384,44.504-241.67
	c-10.469-54.964-44.504-131.74-73.286-162.276l-18.321-19.194l-19.193,41.005c-44.505,93.353-170.138,164.021-357.716,202.409
	l-69.796,13.959l-10.47,116.909c-16.576,198.92-49.729,300.996-121.271,371.665l-36.635,37.516l44.495-5.234
	C1010.567,1082.713,1065.531,1073.116,1107.408,1063.52L1107.408,1063.52z M942.515,871.579
	c43.623-44.495,83.765-171,83.765-266.098V576.69H753.193l5.234,68.052c6.98,97.715,35.771,181.47,75.904,221.603
	C876.208,908.223,904.127,909.968,942.515,871.579L942.515,871.579z M1014.929,433.607c5.234-5.234-25.301-114.291-41.006-143.954
	c-19.193-38.388-63.688-79.394-86.373-79.394c-40.133,0-86.363,65.434-109.057,153.552c-7.843,29.664-13.959,58.454-13.959,62.816
	c0,5.235,16.568,11.342,37.516,13.087C836.075,443.205,1010.567,438.843,1014.929,433.607z M697.356,349.853
	c25.301-133.485,71.541-225.965,131.74-262.608l27.046-16.577h-44.495c-109.057,0-309.721,50.602-374.273,94.225
	c-19.194,13.086-41.878,37.515-51.475,54.092c-14.832,27.918-14.832,33.153-2.617,62.817
	c27.046,63.689,130.867,115.164,294.017,145.7C679.906,428.373,688.631,392.603,697.356,349.853z M1240.894,390.858
	c96.843-34.898,160.531-88.99,160.531-136.975c0-35.771-42.75-81.138-102.076-109.057c-68.924-33.153-198.047-63.689-292.272-69.796
	l-81.138-6.107l27.046,18.322c65.434,43.623,106.439,137.848,139.593,320.19c3.489,18.321,4.361,18.321,57.59,6.979
	C1180.695,408.307,1220.827,397.837,1240.894,390.858z"/>
</svg>
